<?xml version="1.0" encoding="UTF-8"?>
<svg width="28px" height="28px" viewBox="0 0 28 28" version="1.1" xmlns="http://www.w3.org/2000/svg" xmlns:xlink="http://www.w3.org/1999/xlink">
    <!-- Generator: Sketch 53.2 (72643) - https://sketchapp.com -->
    <title>icon/28px/heart</title>
    <desc>Created with Sketch.</desc>
    <defs>
        <path d="M22.5005385,15.4236714 L22.5005385,13.6064571 C22.5005385,8.8608 18.6707308,5 13.9637692,5 C9.25680769,5 5.427,8.8608 5.427,13.6064571 L5.427,15.4236714 C4.35573077,15.8723429 3.6,16.9374286 3.6,18.1775857 L3.6,20.7067571 C3.6,22.3508 4.92676923,23.6881286 6.5575,23.6881286 C6.78473077,23.6881286 7.01788462,23.6596286 7.2505,23.6031714 L7.66323077,23.5030143 L7.66323077,15.3818714 L7.25103846,15.2817143 C7.01761538,15.2249857 6.78419231,15.1962143 6.5575,15.1962143 C6.53946154,15.1962143 6.52196154,15.1986571 6.50392308,15.1989286 L6.50392308,13.6064571 C6.50392308,9.45957143 9.85046154,6.08571429 13.9637692,6.08571429 C18.0770769,6.08571429 21.4236154,9.45957143 21.4236154,13.6064571 L21.4236154,15.1989286 C21.4055769,15.1986571 21.3880769,15.1962143 21.3700385,15.1962143 C21.1433462,15.1962143 20.9099231,15.2249857 20.6765,15.2817143 L20.2643077,15.3818714 L20.2643077,23.5032857 L20.6770385,23.6034429 C20.9096538,23.6599 21.1428077,23.6884 21.3700385,23.6884 C23.0010385,23.6884 24.3275385,22.3508 24.3275385,20.7070286 L24.3275385,18.1778571 C24.3275385,16.9374286 23.5720769,15.8723429 22.5005385,15.4236714 Z M6.58657692,16.2822 L6.58657692,22.602458 C5.5355,22.6094714 4.67692308,21.7618 4.67692308,20.7070286 L4.67692308,18.1778571 C4.67692308,17.1325857 5.52069231,16.2822 6.5575,16.2822 C6.56719231,16.2819286 6.57688462,16.2822 6.58657692,16.2822 Z M23.2506154,20.7070286 C23.2506154,21.7620714 22.3985,22.6127286 21.3409615,22.6024143 L21.3409615,16.2822 C22.3952692,16.2640143 23.2506154,17.1225429 23.2506154,18.1775857 L23.2506154,20.7070286 Z" id="path-1"></path>
    </defs>
    <g id="icon/28px/heart" stroke="none" stroke-width="1" fill="none" fill-rule="evenodd">
        <mask id="mask-2" fill="white">
            <use xlink:href="#path-1"></use>
        </mask>
        <use id="Shape" stroke="#A1A1A1" stroke-width="0.8" fill="#A1A1A1" fill-rule="nonzero" xlink:href="#path-1"></use>
    </g>
</svg>