<?xml version="1.0" encoding="UTF-8"?>
<svg width="28px" height="28px" viewBox="0 0 28 28" version="1.1" xmlns="http://www.w3.org/2000/svg" xmlns:xlink="http://www.w3.org/1999/xlink">
    <!-- Generator: Sketch 53.2 (72643) - https://sketchapp.com -->
    <title>icon/28px/search</title>
    <desc>Created with Sketch.</desc>
    <g id="icon/28px/search" stroke="none" stroke-width="1" fill="none" fill-rule="evenodd">
        <g id="Icon" transform="translate(4.000000, 4.000000)" fill="#A1A1A1">
            <path d="M8.20512734,16.3999983 C12.736694,16.3999983 16.4102547,12.7287336 16.4102547,8.19999915 C16.4102547,3.67126467 12.736694,0 8.20512734,0 C3.67356064,0 0,3.67126467 0,8.19999915 C0,12.7287336 3.67356064,16.3999983 8.20512734,16.3999983 L8.20512734,16.3999983 Z M8.20512734,14.3499985 C4.80645231,14.3499985 2.05128183,11.59655 2.05128183,8.19999915 C2.05128183,4.80344829 4.80645231,2.04999979 8.20512734,2.04999979 C11.6038024,2.04999979 14.3589728,4.80344829 14.3589728,8.19999915 C14.3589728,11.59655 11.6038024,14.3499985 8.20512734,14.3499985 L8.20512734,14.3499985 Z" id="Search-Icon" fill-rule="nonzero"></path>
            <path d="M18.2307334,20.1809299 C18.6208527,20.5913651 19.2700384,20.6080322 19.6807303,20.2181568 C20.0914223,19.8282813 20.1080997,19.1795014 19.7179805,18.7690661 L14.0769554,12.8342767 C13.6868362,12.4238414 13.0376505,12.4071744 12.6269585,12.7970498 C12.2162666,13.1869252 12.1995892,13.8357052 12.5897084,14.2461405 L18.2307334,20.1809299 Z" id="Path-511"></path>
        </g>
    </g>
</svg>