<?xml version="1.0" encoding="UTF-8"?>
<svg width="18px" height="18px" viewBox="0 0 18 18" version="1.1" xmlns="http://www.w3.org/2000/svg" xmlns:xlink="http://www.w3.org/1999/xlink">
    <!-- Generator: Sketch 53.2 (72643) - https://sketchapp.com -->
    <title>icon/18px/heart</title>
    <desc>Created with Sketch.</desc>
    <defs>
        <path d="M14.4646319,9.91521735 L14.4646319,8.74700816 C14.4646319,5.69622857 12.0026126,3.21428571 8.97670879,3.21428571 C5.95080495,3.21428571 3.48878571,5.69622857 3.48878571,8.74700816 L3.48878571,9.91521735 C2.80011264,10.203649 2.31428571,10.8883469 2.31428571,11.6855908 L2.31428571,13.3114867 C2.31428571,14.3683714 3.16720879,15.2280827 4.21553571,15.2280827 C4.36161264,15.2280827 4.51149725,15.2097612 4.66103571,15.1734673 L4.92636264,15.1090806 L4.92636264,9.88834592 L4.66138187,9.82395918 C4.51132418,9.78749082 4.36126648,9.7689949 4.21553571,9.7689949 C4.20393956,9.7689949 4.19268956,9.77056531 4.18109341,9.7707398 L4.18109341,8.74700816 C4.18109341,6.08115306 6.33243956,3.9122449 8.97670879,3.9122449 C11.620978,3.9122449 13.7723242,6.08115306 13.7723242,8.74700816 L13.7723242,9.7707398 C13.760728,9.77056531 13.749478,9.7689949 13.7378819,9.7689949 C13.5921511,9.7689949 13.4420934,9.78749082 13.2920357,9.82395918 L13.0270549,9.88834592 L13.0270549,15.1092551 L13.2923819,15.1736418 C13.4419203,15.2099357 13.5918049,15.2282571 13.7378819,15.2282571 C14.7863819,15.2282571 15.6391319,14.3683714 15.6391319,13.3116612 L15.6391319,11.6857653 C15.6391319,10.8883469 15.153478,10.203649 14.4646319,9.91521735 Z M4.23422802,10.4671286 L4.23422802,14.5301516 C3.55853571,14.5346602 3.00659341,13.9897286 3.00659341,13.3116612 L3.00659341,11.6857653 C3.00659341,11.0138051 3.54901648,10.4671286 4.21553571,10.4671286 C4.22176648,10.4669541 4.22799725,10.4671286 4.23422802,10.4671286 Z M14.9468242,13.3116612 C14.9468242,13.9899031 14.3990357,14.5367541 13.7191896,14.5301235 L13.7191896,10.4671286 C14.3969588,10.4554378 14.9468242,11.007349 14.9468242,11.6855908 L14.9468242,13.3116612 Z" id="path-1"></path>
    </defs>
    <g id="icon/18px/heart" stroke="none" stroke-width="1" fill="none" fill-rule="evenodd">
        <mask id="mask-2" fill="white">
            <use xlink:href="#path-1"></use>
        </mask>
        <use id="Shape" stroke="#A1A1A1" stroke-width="0.514285714" fill="#A1A1A1" fill-rule="nonzero" xlink:href="#path-1"></use>
    </g>
</svg>